<?xml version="1.0" encoding="UTF-8" standalone="no"?><svg xmlns="http://www.w3.org/2000/svg" xmlns:xlink="http://www.w3.org/1999/xlink" contentScriptType="application/ecmascript" contentStyleType="text/css" height="280px" preserveAspectRatio="none" style="width:529px;height:280px;" version="1.1" viewBox="0 0 529 280" width="529px" zoomAndPan="magnify"><defs><filter height="300%" id="f13ayixckv53si" width="300%" x="-1" y="-1"><feGaussianBlur result="blurOut" stdDeviation="2.0"/><feColorMatrix in="blurOut" result="blurOut2" type="matrix" values="0 0 0 0 0 0 0 0 0 0 0 0 0 0 0 0 0 0 .4 0"/><feOffset dx="4.0" dy="4.0" in="blurOut2" result="blurOut3"/><feBlend in="SourceGraphic" in2="blurOut3" mode="normal"/></filter></defs><g><!--MD5=[b8d5a346e1d7c393ba2c3b7ba3c64080]
cluster com.github.exceptions--><polygon fill="#FFFFFF" filter="url(#f13ayixckv53si)" points="16,6,202,6,209,28.2969,507,28.2969,507,252,16,252,16,6" style="stroke: #000000; stroke-width: 1.5;"/><line style="stroke: #000000; stroke-width: 1.5;" x1="16" x2="209" y1="28.2969" y2="28.2969"/><text fill="#000000" font-family="sans-serif" font-size="14" font-weight="bold" lengthAdjust="spacingAndGlyphs" textLength="180" x="20" y="20.9951">com.github.exceptions</text><!--MD5=[6cfc5b1e194a8fd0e8756f9e05e52729]
class com.github.exceptions.NotFoundException--><rect codeLine="3" fill="#FEFECE" filter="url(#f13ayixckv53si)" height="60.8047" id="com.github.exceptions.NotFoundException" style="stroke: #A80036; stroke-width: 1.5;" width="175" x="32.5" y="47.5"/><ellipse cx="56.95" cy="63.5" fill="#ADD1B2" rx="11" ry="11" style="stroke: #A80036; stroke-width: 1.0;"/><path d="M59.9188,69.1406 Q59.3406,69.4375 58.7,69.5781 Q58.0594,69.7344 57.3563,69.7344 Q54.8563,69.7344 53.5281,68.0938 Q52.2156,66.4375 52.2156,63.3125 Q52.2156,60.1875 53.5281,58.5313 Q54.8563,56.875 57.3563,56.875 Q58.0594,56.875 58.7,57.0313 Q59.3563,57.1875 59.9188,57.4844 L59.9188,60.2031 Q59.2938,59.625 58.7,59.3594 Q58.1063,59.0781 57.4813,59.0781 Q56.1375,59.0781 55.45,60.1563 Q54.7625,61.2188 54.7625,63.3125 Q54.7625,65.4063 55.45,66.4844 Q56.1375,67.5469 57.4813,67.5469 Q58.1063,67.5469 58.7,67.2813 Q59.2938,67 59.9188,66.4219 L59.9188,69.1406 Z "/><text fill="#000000" font-family="sans-serif" font-size="12" lengthAdjust="spacingAndGlyphs" textLength="122" x="73.05" y="67.6543">NotFoundException</text><line style="stroke: #A80036; stroke-width: 1.5;" x1="33.5" x2="206.5" y1="79.5" y2="79.5"/><line style="stroke: #A80036; stroke-width: 1.5;" x1="33.5" x2="206.5" y1="87.5" y2="87.5"/><ellipse cx="43.5" cy="98.5" fill="#84BE84" rx="3" ry="3" style="stroke: #038048; stroke-width: 1.0;"/><text fill="#000000" font-family="sans-serif" font-size="11" lengthAdjust="spacingAndGlyphs" textLength="149" x="52.5" y="101.7104">NotFoundException(String)</text><!--MD5=[87501c37d9ab4e9c56000a48a41c18e8]
class com.github.exceptions.DuplicatedException--><rect codeLine="7" fill="#FEFECE" filter="url(#f13ayixckv53si)" height="73.6094" id="com.github.exceptions.DuplicatedException" style="stroke: #A80036; stroke-width: 1.5;" width="248" x="243" y="41"/><ellipse cx="298.75" cy="57" fill="#ADD1B2" rx="11" ry="11" style="stroke: #A80036; stroke-width: 1.0;"/><path d="M301.7188,62.6406 Q301.1406,62.9375 300.5,63.0781 Q299.8594,63.2344 299.1563,63.2344 Q296.6563,63.2344 295.3281,61.5938 Q294.0156,59.9375 294.0156,56.8125 Q294.0156,53.6875 295.3281,52.0313 Q296.6563,50.375 299.1563,50.375 Q299.8594,50.375 300.5,50.5313 Q301.1563,50.6875 301.7188,50.9844 L301.7188,53.7031 Q301.0938,53.125 300.5,52.8594 Q299.9063,52.5781 299.2813,52.5781 Q297.9375,52.5781 297.25,53.6563 Q296.5625,54.7188 296.5625,56.8125 Q296.5625,58.9063 297.25,59.9844 Q297.9375,61.0469 299.2813,61.0469 Q299.9063,61.0469 300.5,60.7813 Q301.0938,60.5 301.7188,59.9219 L301.7188,62.6406 Z "/><text fill="#000000" font-family="sans-serif" font-size="12" lengthAdjust="spacingAndGlyphs" textLength="128" x="319.25" y="61.1543">DuplicatedException</text><line style="stroke: #A80036; stroke-width: 1.5;" x1="244" x2="490" y1="73" y2="73"/><line style="stroke: #A80036; stroke-width: 1.5;" x1="244" x2="490" y1="81" y2="81"/><ellipse cx="254" cy="92" fill="#84BE84" rx="3" ry="3" style="stroke: #038048; stroke-width: 1.0;"/><text fill="#000000" font-family="sans-serif" font-size="11" lengthAdjust="spacingAndGlyphs" textLength="222" x="263" y="95.2104">DuplicatedException(String, Throwable)</text><ellipse cx="254" cy="104.8047" fill="#84BE84" rx="3" ry="3" style="stroke: #038048; stroke-width: 1.0;"/><text fill="#000000" font-family="sans-serif" font-size="11" lengthAdjust="spacingAndGlyphs" textLength="155" x="263" y="108.0151">DuplicatedException(String)</text><!--MD5=[0b3cd3cde3673febc340bbefd8be2cd7]
class com.github.exceptions.DatabaseException--><rect codeLine="12" fill="#FEFECE" filter="url(#f13ayixckv53si)" height="60.8047" id="com.github.exceptions.DatabaseException" style="stroke: #A80036; stroke-width: 1.5;" width="243" x="32.5" y="175"/><ellipse cx="88.75" cy="191" fill="#ADD1B2" rx="11" ry="11" style="stroke: #A80036; stroke-width: 1.0;"/><path d="M91.7188,196.6406 Q91.1406,196.9375 90.5,197.0781 Q89.8594,197.2344 89.1563,197.2344 Q86.6563,197.2344 85.3281,195.5938 Q84.0156,193.9375 84.0156,190.8125 Q84.0156,187.6875 85.3281,186.0313 Q86.6563,184.375 89.1563,184.375 Q89.8594,184.375 90.5,184.5313 Q91.1563,184.6875 91.7188,184.9844 L91.7188,187.7031 Q91.0938,187.125 90.5,186.8594 Q89.9063,186.5781 89.2813,186.5781 Q87.9375,186.5781 87.25,187.6563 Q86.5625,188.7188 86.5625,190.8125 Q86.5625,192.9063 87.25,193.9844 Q87.9375,195.0469 89.2813,195.0469 Q89.9063,195.0469 90.5,194.7813 Q91.0938,194.5 91.7188,193.9219 L91.7188,196.6406 Z "/><text fill="#000000" font-family="sans-serif" font-size="12" lengthAdjust="spacingAndGlyphs" textLength="122" x="109.25" y="195.1543">DatabaseException</text><line style="stroke: #A80036; stroke-width: 1.5;" x1="33.5" x2="274.5" y1="207" y2="207"/><line style="stroke: #A80036; stroke-width: 1.5;" x1="33.5" x2="274.5" y1="215" y2="215"/><ellipse cx="43.5" cy="226" fill="#84BE84" rx="3" ry="3" style="stroke: #038048; stroke-width: 1.0;"/><text fill="#000000" font-family="sans-serif" font-size="11" lengthAdjust="spacingAndGlyphs" textLength="217" x="52.5" y="229.2104">DatabaseException(String, Throwable)</text><!--MD5=[b7b372c041c0da42ba5e38a0231c645f]
link com.github.exceptions.NotFoundException to com.github.exceptions.DuplicatedException--><!--MD5=[4c43649e0fcaaf9f628ee777dbb18136]
link com.github.exceptions.NotFoundException to com.github.exceptions.DatabaseException--><text fill="#888888" font-family="sans-serif" font-size="10" lengthAdjust="spacingAndGlyphs" textLength="192" x="159.5" y="267.2822">UMLDoclet 2.0.12, PlantUML 1.2020.16</text><!--MD5=[fa5c83eec4cf9c825c42136efdc73680]
@startuml
    namespace com.github.exceptions {

        class NotFoundException {
            +NotFoundException(String)
        }

        class DuplicatedException {
            +DuplicatedException(String, Throwable)
            +DuplicatedException(String)
        }

        class DatabaseException {
            +DatabaseException(String, Throwable)
        }

    }

    center footer UMLDoclet 2.0.12, PlantUML 1.2020.16
@enduml

PlantUML version 1.2020.16(Sun Aug 23 22:20:43 CEST 2020)
(APACHE source distribution)
Java Runtime: OpenJDK Runtime Environment
JVM: OpenJDK 64-Bit Server VM
Default Encoding: UTF-8
Language: en
Country: US
--></g></svg>